<?xml version="1.0" standalone="no"?><!DOCTYPE svg PUBLIC "-//W3C//DTD SVG 1.1//EN" "http://www.w3.org/Graphics/SVG/1.1/DTD/svg11.dtd"><svg class="icon" width="48px" height="48.00px" viewBox="0 0 1024 1024" version="1.1" xmlns="http://www.w3.org/2000/svg"><path fill="#9094ac" d="M480 95.936v0.256a32 32 0 0 1-32 32l-320-0.256a32 32 0 0 0-32 32v704a32 32 0 0 0 32 32h256a32 32 0 0 0 32-32v-287.36a32 32 0 0 0-32-32l-191.296 0.064a32 32 0 0 1-32-32 32 32 0 0 1 32-32l223.168-0.384a64 64 0 0 1 64.128 64V896a64 64 0 0 1-64 64h-320a64 64 0 0 1-64-64v-768a64 64 0 0 1 64-64H448a32 32 0 0 1 32 32zM703.872 623.808h227.328a64 64 0 0 1 64 64V928a32 32 0 1 1-64 0v-208.448a32 32 0 0 0-32-32h-195.328a31.872 31.872 0 0 1 0-63.744zM608 928a32 32 0 1 1-64 0v-384c0-3.968 0.704-7.808 2.048-11.328A63.936 63.936 0 0 1 608 480h291.2a32 32 0 0 0 32-32V160a32 32 0 0 0-32-32h-320a32 32 0 1 1 0-64h320c35.392 0 96 28.672 96 64v352a64 64 0 0 1-64 64h-288.832a32 32 0 0 0-32 32H608v352z" /></svg>